<svg xmlns="http://www.w3.org/2000/svg" version="1.1" xmlns:xlink="http://www.w3.org/1999/xlink" xmlns:svgjs="http://svgjs.dev/svgjs" width="1500" height="265" viewBox="0 0 1500 265"><g transform="matrix(1,0,0,1,-0.9090909090909918,-1.4077940532882849)"><svg viewBox="0 0 396 70" data-background-color="#40b0e2" preserveAspectRatio="xMidYMid meet" height="265" width="1500" xmlns="http://www.w3.org/2000/svg" xmlns:xlink="http://www.w3.org/1999/xlink"><g id="tight-bounds" transform="matrix(1,0,0,1,0.2400000000000091,0.3718701272836995)"><svg viewBox="0 0 395.52 69.2562597454326" height="69.2562597454326" width="395.52"><g><svg viewBox="0 0 482.6935719145792 84.52050817649359" height="69.2562597454326" width="395.52"><g transform="matrix(1,0,0,1,87.17357191457921,11.681199031628285)"><svg viewBox="0 0 395.52 61.15811011323702" height="61.15811011323702" width="395.52"><g id="textblocktransform"><svg viewBox="0 0 395.52 61.15811011323702" height="61.15811011323702" width="395.52" id="textblock"><g><svg viewBox="0 0 395.52 61.15811011323702" height="61.15811011323702" width="395.52"><g transform="matrix(1,0,0,1,0,0)"><svg width="395.52" viewBox="0.7 -38.9 256.08 39.6" height="61.15811011323702" data-palette-color="#ffffff"><path d="M38.3-38.9L38.3-26.8 29.7-26.8 29.7-30.7 26.5-30.7 26.5-8.2 30-8.2 30 0 9 0 9-8.2 12.5-8.2 12.5-30.7 9.3-30.7 9.3-26.8 0.7-26.8 0.7-38.9 38.3-38.9ZM66.05-8.2L68.25-8.2 68.25 0 55.05 0 55.05-3.4Q53.95-1.8 51.97-0.55 50 0.7 47.15 0.7L47.15 0.7Q43.4 0.7 41.25-1.3 39.1-3.3 39.1-6.95L39.1-6.95Q39.1-16.4 55.15-16.65L55.15-16.65Q55-18.35 53.85-18.98 52.7-19.6 49.95-19.6L49.95-19.6Q47.7-19.6 45.12-19.13 42.55-18.65 40.4-17.85L40.4-17.85 40.4-27.05Q43.05-27.7 46.15-28.1 49.25-28.5 52.2-28.5L52.2-28.5Q59.65-28.5 62.85-25.8 66.05-23.1 66.05-17.45L66.05-17.45 66.05-8.2ZM55.05-11.4L55.05-11.7Q52.8-11.7 51.57-11.1 50.35-10.5 50.35-9.1L50.35-9.1Q50.35-8.25 50.87-7.73 51.4-7.2 52.35-7.2L52.35-7.2Q53.65-7.2 54.35-8.3 55.05-9.4 55.05-11.4L55.05-11.4ZM82 0.7Q75.7 0.7 69.85-1.3L69.85-1.3 69.85-8.7 77.95-8.7 77.95-8.2Q77.95-5.8 81-5.8L81-5.8Q83.7-5.8 83.7-7.65L83.7-7.65Q83.7-8.65 82.92-9.15 82.15-9.65 80.2-10L80.2-10 77.7-10.45Q69.85-11.85 69.85-19.35L69.85-19.35Q69.85-23.7 73.15-26.1 76.45-28.5 82.05-28.5L82.05-28.5Q88.3-28.5 92.6-26.4L92.6-26.4 92.6-19.45 85-19.45 85-19.95Q85-20.95 84.32-21.48 83.65-22 82.35-22L82.35-22Q79.85-22 79.85-20.4L79.85-20.4Q79.85-19.55 80.55-19.1 81.25-18.65 83.1-18.25L83.1-18.25 85.95-17.7Q90.4-16.85 92.3-14.55 94.2-12.25 94.2-8.65L94.2-8.65Q94.2-4.1 91.02-1.7 87.85 0.7 82 0.7L82 0.7ZM121.14-14.85L125.94-8.2 128.09-8.2 128.09 0 115.84 0 110.69-9.6 109.49-9.6 109.49 0 95.79 0 95.79-8.2 97.99-8.2 97.99-30.7 95.79-30.7 95.79-38.9 109.49-38.9 109.49-18.6 110.69-18.6 116.89-27.8 127.44-27.8 127.44-19.6 125.39-19.6 121.14-14.85ZM152.84 0L129.79 0 129.79-8.2 132.29-8.2 132.29-30.7 129.79-30.7 129.79-38.9 159.69-38.9 159.69-25.95 150.84-25.95 150.84-30.7 146.29-30.7 146.29-22.4 153.84-22.4 153.84-16.7 146.29-16.7 146.29-8.2 152.84-8.2 152.84 0ZM177.19 0.05L161.29 0.05 161.29-8.2 163.49-8.2 163.49-30.7 161.29-30.7 161.29-38.9 174.99-38.9 174.99-8.2 177.19-8.2 177.19 0.05ZM193.69 0.7Q186.59 0.7 182.59-3.03 178.59-6.75 178.59-13.9L178.59-13.9Q178.59-21.05 182.59-24.78 186.59-28.5 193.69-28.5L193.69-28.5Q200.89-28.5 204.84-24.73 208.79-20.95 208.79-13.9L208.79-13.9Q208.79-6.75 204.79-3.03 200.79 0.7 193.69 0.7L193.69 0.7ZM193.69-8.2Q195.14-8.2 195.86-8.97 196.59-9.75 196.59-11.4L196.59-11.4 196.59-16.4Q196.59-18.05 195.86-18.82 195.14-19.6 193.69-19.6L193.69-19.6Q192.24-19.6 191.51-18.82 190.79-18.05 190.79-16.4L190.79-16.4 190.79-11.4Q190.79-9.75 191.51-8.97 192.24-8.2 193.69-8.2L193.69-8.2ZM230.18 0L218.68 0 212.08-19.6 209.98-19.6 209.98-27.8 225.43-27.8 225.43-19.6 223.33-19.6 225.13-11.8 225.63-11.8 229.28-27.8 238.48-27.8 242.13-11.8 242.63-11.8 244.38-19.6 242.28-19.6 242.28-27.8 256.78-27.8 256.78-19.6 254.68-19.6 248.33 0 236.18 0 233.43-13.9 232.93-13.9 230.18 0Z" opacity="1" transform="matrix(1,0,0,1,0,0)" fill="#ffffff" class="wordmark-text-0" data-fill-palette-color="primary" id="text-0"></path></svg></g></svg></g></svg></g></svg></g><g><svg viewBox="0 0 72.73560991148666 84.52050817649359" height="84.52050817649359" width="72.73560991148666"><g><svg xmlns="http://www.w3.org/2000/svg" xmlns:xlink="http://www.w3.org/1999/xlink" version="1.1" x="0" y="0" viewBox="2.96217666004358 2.7871975281759584 64.08128218807998 74.463973585" enable-background="new 0 0 70 80" xml:space="preserve" height="84.52050817649359" width="72.73560991148666" class="icon-icon-0" data-fill-palette-color="accent" id="icon-0"><path d="M24.6 71.4C19.2 71.2 16.5 71.1 11 70.7 10.3 70.7 9.8 70.1 9.7 69.4 8.6 49.7 8.6 29.9 9.7 10.2 9.7 9.5 10.3 9 11 8.9 27.1 7.7 43.3 7.7 59.4 8.9 60.1 9 60.6 9.5 60.7 10.2 61.3 20.2 61.6 30.3 61.5 40.3 61.5 40.3 61.5 41.1 62 41.8 63.5 43.3 64.3 44 65.8 45.5 67.2 46.8 67 44.7 67 44.7 67.2 32 66.7 19.2 65.7 6.5 65.6 5.2 64.5 4 63.3 3.9 44.1 2.4 25.6 2.4 6.4 4 5.2 4.1 4.2 5.3 4.1 6.6 2.6 28.8 2.6 50.7 4 73 4.1 74.3 5.2 75.5 6.4 75.6 15.5 76.6 20 76.9 29.1 77.1 29.1 77.1 31.7 77.2 30.2 75.6 28.9 74.3 28.3 73.6 27 72.3 27.1 72.3 26.3 71.5 24.6 71.4" fill="#ffffff" data-fill-palette-color="accent"></path><path d="M26.9 65.9C26.3 65.3 26.3 64.2 26.9 63.6 28.5 62 29.2 61.2 30.8 59.6 31.4 59 32.4 59 33 59.6 35.6 62.2 36.9 63.5 39.4 66.1 40 66.7 41 66.7 41.6 66.1 41.6 66.1 56.4 50.2 59.6 48 60.3 47.5 61.3 47.4 61.9 47.9 63.5 49.4 64.3 50.1 65.8 51.6 66.4 52.2 66.4 53.1 65.7 53.8 58.3 61.1 51 68.5 43.9 76 42 77.6 38.5 77.7 36.9 76.1 33 72.1 31 70 26.9 65.9" fill="#ffffff" data-fill-palette-color="accent"></path><path d="M55 20.7C55 21.4 54.5 21.9 53.8 21.9 41.2 21.5 28.5 21.5 15.9 21.9 15.2 21.9 14.7 21.4 14.7 20.7 14.7 19.7 14.7 19.2 14.8 18.3 14.8 17.6 15.4 17.1 16.1 17 28.6 16.5 41.2 16.5 53.7 17 54.4 17 54.9 17.6 55 18.3z" fill="#ffffff" data-fill-palette-color="accent"></path><path d="M55.2 32.2C55.2 32.9 54.7 33.4 54 33.4 41.2 33.3 28.5 33.3 15.7 33.4 15 33.4 14.5 32.9 14.5 32.2V29.8C14.5 29.1 15.1 28.6 15.7 28.6 28.4 28.3 41.1 28.3 53.9 28.6 54.6 28.6 55.1 29.2 55.1 29.8 55.2 30.8 55.2 31.3 55.2 32.2" fill="#ffffff" data-fill-palette-color="accent"></path><path d="M55.3 43.7C55.3 44.4 54.7 44.9 54.1 44.9 41.3 45 28.6 45 15.8 44.9 15.1 44.9 14.6 44.3 14.6 43.7V41.3C14.6 40.6 15.2 40.1 15.8 40.1H54.1C54.8 40.1 55.3 40.6 55.3 41.3z" fill="#ffffff" data-fill-palette-color="accent"></path></svg></g></svg></g></svg></g><defs></defs></svg><rect width="395.52" height="69.2562597454326" fill="none" stroke="none" visibility="hidden"></rect></g></svg></g></svg>